<?xml version="1.0" encoding="UTF-8"?>
<svg version="1.1" xmlns="http://www.w3.org/2000/svg" width="500" height="500">
<path d="M0 0 C2.81401829 0.01079296 5.62740608 -0.00001964 8.44140625 -0.01269531 C22.44589401 -0.0245382 36.88187284 0.21836946 50.36328125 4.44824219 C51.06138916 4.66254883 51.75949707 4.87685547 52.47875977 5.09765625 C63.63021003 8.7179411 72.29771074 15.04907504 80.55078125 23.26074219 C81.34226562 24.01742187 82.13375 24.77410156 82.94921875 25.55371094 C89.03319519 31.75509745 89.03319519 31.75509745 89.42578125 36.51074219 C88.3408106 41.16061641 86.32877817 42.681346 82.55078125 45.26074219 C78.86973678 47.45638672 75.09425071 49.45460245 71.30078125 51.44824219 C70.19138184 52.03831055 69.08198242 52.62837891 67.93896484 53.23632812 C65.49441326 54.53631278 63.04744788 55.83160006 60.59863281 57.12353516 C56.20086335 59.44389475 51.80949573 61.7762523 47.41796875 64.10839844 C41.43586332 67.28326434 35.45224523 70.45524891 29.46484375 73.62011719 C28.5039534 74.12859947 28.5039534 74.12859947 27.52365112 74.64735413 C25.86784342 75.52192954 24.20944234 76.39159046 22.55078125 77.26074219 C21.43968994 77.86837402 21.43968994 77.86837402 20.30615234 78.48828125 C18.55078125 79.26074219 18.55078125 79.26074219 15.55078125 79.26074219 C15.55078125 83.22074219 15.55078125 87.18074219 15.55078125 91.26074219 C16.41574219 91.48761719 17.28070313 91.71449219 18.171875 91.94824219 C22.00169744 93.43589576 24.61285843 95.54982567 27.61328125 98.26074219 C32.75014158 102.76864522 38.01583021 107.00886112 43.50024414 111.08691406 C47.44831855 114.05581678 47.44831855 114.05581678 48.55078125 116.26074219 C49.08048539 124.20630425 47.58559352 131.58538813 45.55078125 139.26074219 C39.93055592 144.88096752 19.48195125 142.5706088 11.95703125 142.58300781 C11.06628906 142.58083252 10.17554688 142.57865723 9.2578125 142.57641602 C6.55297873 142.57324476 3.84923203 142.59687276 1.14453125 142.62207031 C-13.56214333 142.67642952 -27.42673229 140.91211094 -41.51171875 136.51074219 C-42.33752441 136.25687744 -43.16333008 136.0030127 -44.01416016 135.74145508 C-49.56106709 133.98399283 -54.97417685 131.98545587 -60.32421875 129.69824219 C-60.95980713 129.42979492 -61.59539551 129.16134766 -62.25024414 128.88476562 C-66.66436388 126.90289173 -69.99808333 124.60106133 -73.44921875 121.26074219 C-73.44921875 120.27074219 -73.44921875 119.28074219 -73.44921875 118.26074219 C-74.32320312 118.12345703 -74.32320312 118.12345703 -75.21484375 117.98339844 C-77.98105722 117.08873149 -79.21295839 115.7990945 -81.19921875 113.69824219 C-81.8128125 113.05757813 -82.42640625 112.41691406 -83.05859375 111.75683594 C-83.5175 111.263125 -83.97640625 110.76941406 -84.44921875 110.26074219 C-85.21234375 111.02386719 -85.97546875 111.78699219 -86.76171875 112.57324219 C-88.65755208 114.46907552 -90.55338542 116.36490885 -92.44921875 118.26074219 C-90.99111253 121.65539574 -89.11155147 123.78325931 -86.44921875 126.32324219 C-80.61273624 131.91296165 -80.61273624 131.91296165 -80.0625 136.44824219 C-80.54644245 141.21923038 -82.23673581 144.18993287 -84.63671875 148.26074219 C-92.35582915 162.1895554 -95.33806263 175.61287441 -97.13964844 191.34399414 C-97.44921875 193.26074219 -97.44921875 193.26074219 -98.44921875 195.26074219 C-105.37921875 195.26074219 -112.30921875 195.26074219 -119.44921875 195.26074219 C-118.95421875 197.73574219 -118.95421875 197.73574219 -118.44921875 200.26074219 C-118.3838844 202.19725237 -118.36337572 204.1357708 -118.38671875 206.07324219 C-118.39574219 207.0490625 -118.40476563 208.02488281 -118.4140625 209.03027344 C-118.42566406 209.76632812 -118.43726563 210.50238281 -118.44921875 211.26074219 C-117.57185059 211.22146606 -117.57185059 211.22146606 -116.67675781 211.18139648 C-114.01785309 211.07724462 -111.35937731 211.01236447 -108.69921875 210.94824219 C-107.31863281 210.88540039 -107.31863281 210.88540039 -105.91015625 210.82128906 C-99.18333873 210.69942643 -99.18333873 210.69942643 -96.04296875 213.10058594 C-93.75713402 217.63303764 -92.23646147 222.30602638 -90.69921875 227.13574219 C-86.71999454 239.07154093 -82.03337428 249.59620806 -74.44921875 259.69824219 C-71.1836953 264.11891679 -70.74748172 266.84734227 -71.44921875 272.26074219 C-72.43921875 272.26074219 -73.42921875 272.26074219 -74.44921875 272.26074219 C-74.44921875 272.92074219 -74.44921875 273.58074219 -74.44921875 274.26074219 C-75.10921875 274.26074219 -75.76921875 274.26074219 -76.44921875 274.26074219 C-76.55234375 274.85886719 -76.65546875 275.45699219 -76.76171875 276.07324219 C-77.5379833 278.54317483 -78.52010796 279.58325454 -80.44921875 281.26074219 C-79.04077157 284.47598524 -77.34577089 286.58258086 -74.82421875 289.01074219 C-73.87675781 289.93113281 -73.87675781 289.93113281 -72.91015625 290.87011719 C-72.42804688 291.32902344 -71.9459375 291.78792969 -71.44921875 292.26074219 C-70.45921875 291.60074219 -69.46921875 290.94074219 -68.44921875 290.26074219 C-67.45921875 290.26074219 -66.46921875 290.26074219 -65.44921875 290.26074219 C-65.11921875 288.94074219 -64.78921875 287.62074219 -64.44921875 286.26074219 C-63.12921875 285.93074219 -61.80921875 285.60074219 -60.44921875 285.26074219 C-60.44921875 284.60074219 -60.44921875 283.94074219 -60.44921875 283.26074219 C-53.30995223 282.60879113 -49.72241407 284.36738193 -43.88671875 288.32324219 C-32.67780237 295.51957429 -21.51943092 301.03973392 -8.63818359 304.57666016 C-5.10209023 305.57581525 -2.70288989 306.31041328 -0.44921875 309.26074219 C-0.10864258 311.43725586 -0.10864258 311.43725586 -0.15625 313.92871094 C-0.17075195 315.26772461 -0.17075195 315.26772461 -0.18554688 316.63378906 C-0.21068359 317.56255859 -0.23582031 318.49132812 -0.26171875 319.44824219 C-0.27525391 320.38861328 -0.28878906 321.32898438 -0.30273438 322.29785156 C-0.33808272 324.61905953 -0.3918896 326.93997307 -0.44921875 329.26074219 C4.50078125 329.26074219 9.45078125 329.26074219 14.55078125 329.26074219 C14.55078125 322.66074219 14.55078125 316.06074219 14.55078125 309.26074219 C15.89140625 308.99261719 17.23203125 308.72449219 18.61328125 308.44824219 C19.52722656 308.26261719 20.44117188 308.07699219 21.3828125 307.88574219 C23.60518876 307.44729558 25.83233187 307.03265754 28.0625 306.63574219 C39.31067745 304.56711185 49.88094165 301.95608737 59.42578125 295.44824219 C62.62986698 293.2949081 65.02990211 291.75060042 68.92578125 291.51074219 C73.46683705 292.45027097 74.64275104 293.68162809 77.55078125 297.26074219 C78.81821034 298.70124457 80.08919672 300.138623 81.36328125 301.57324219 C82.4275412 302.80088533 83.49065419 304.02952833 84.55078125 305.26074219 C88.54578743 303.89102578 91.35087617 302.00351797 94.55078125 299.26074219 C94.01233529 294.41472854 90.4814297 291.85148774 86.88671875 288.88964844 C83.83460029 286.22085291 82.66732779 284.73525309 81.67578125 280.69824219 C82.04144661 275.97134855 84.66076467 272.53880199 87.20263672 268.66162109 C94.52263644 257.33784696 98.24918545 244.93180918 100.82421875 231.79589844 C101.55078125 228.26074219 101.55078125 228.26074219 102.55078125 226.26074219 C110.14078125 226.26074219 117.73078125 226.26074219 125.55078125 226.26074219 C125.88078125 220.32074219 126.21078125 214.38074219 126.55078125 208.26074219 C125.09285156 208.30714844 123.63492187 208.35355469 122.1328125 208.40136719 C120.20965593 208.43889219 118.28647717 208.47529157 116.36328125 208.51074219 C115.40357422 208.54425781 114.44386719 208.57777344 113.45507812 208.61230469 C109.27017074 208.67022728 106.32023323 208.63555256 102.51953125 206.78417969 C99.78382462 203.27769856 99.12701056 199.93565544 98.23828125 195.63574219 C93.81909637 176.89522497 85.20698695 159.65321183 71.84765625 145.69824219 C66.24090716 139.74822275 64.32377074 136.05658436 64.3828125 127.95605469 C64.58805099 124.66269282 65.24067238 121.63919391 66.11328125 118.46386719 C66.68790053 115.57024869 66.88264671 113.2050834 66.55078125 110.26074219 C64.74430278 108.05050585 64.74430278 108.05050585 62.17578125 106.32324219 C61.26957031 105.6490625 60.36335937 104.97488281 59.4296875 104.28027344 C55.87082179 101.7837557 52.305809 99.29938012 48.6796875 96.90136719 C45.48315677 94.43798571 43.83612413 92.27041698 42.73828125 88.38574219 C43.71158273 84.64227497 44.35799474 84.3604404 47.55078125 82.38574219 C52.42311903 79.74712159 57.39882044 77.29349108 62.38305664 74.87255859 C67.1676736 72.52708294 71.84042627 70.01057153 76.4921875 67.41308594 C78.36620614 66.37591557 80.24085324 65.33988753 82.11553955 64.30392456 C83.35350198 63.61433636 84.58777636 62.91808071 85.8180542 62.21487427 C98.46630865 54.99101389 98.46630865 54.99101389 106.55078125 56.26074219 C109.046875 57.44042969 109.046875 57.44042969 110.98828125 59.13574219 C112.09816406 60.0909375 112.09816406 60.0909375 113.23046875 61.06542969 C116.61155148 64.26436654 119.90660148 67.53780444 123.16015625 70.86621094 C125.16647802 72.87581101 127.19828664 74.74027406 129.36328125 76.57324219 C139.29762666 85.14010685 148.11897109 94.42326021 155.55078125 105.26074219 C156.27652344 106.31519531 157.00226563 107.36964844 157.75 108.45605469 C167.13949067 122.42843774 174.81819055 137.44016906 180.55078125 153.26074219 C181.21013672 155.02224609 181.21013672 155.02224609 181.8828125 156.81933594 C198.6529557 203.8872001 195.72679809 255.11464274 174.67578125 300.01074219 C167.12612126 315.7606764 157.164685 329.14916204 144.55078125 341.26074219 C143.72578125 342.08574219 142.90078125 342.91074219 142.05078125 343.76074219 C141.22578125 344.58574219 140.40078125 345.41074219 139.55078125 346.26074219 C139.03773438 346.83179688 138.5246875 347.40285156 137.99609375 347.99121094 C111.60989536 376.35920534 68.42479295 385.0407834 31.51171875 386.42480469 C-18.44193855 387.73470822 -69.32862218 366.52966138 -105.796875 332.78027344 C-106.67214844 331.94882812 -107.54742187 331.11738281 -108.44921875 330.26074219 C-109.23981689 329.51896729 -109.23981689 329.51896729 -110.04638672 328.76220703 C-119.32486123 320.0078803 -127.12120721 310.68763947 -134.44921875 300.26074219 C-134.94083496 299.5659375 -135.43245117 298.87113281 -135.93896484 298.15527344 C-152.11578422 275.22265822 -165.755938 250.50070148 -170.08984375 222.41699219 C-170.43873269 220.04068184 -170.43873269 220.04068184 -171.44921875 216.94824219 C-182.51126463 176.15694802 -173.74967019 128.07213893 -153.33520508 91.75805664 C-147.7482884 82.10792784 -141.02809737 73.65171905 -133.4609375 65.46386719 C-131.73164717 63.57004244 -130.10886101 61.6403665 -128.51171875 59.63574219 C-127.83109375 58.85199219 -127.15046875 58.06824219 -126.44921875 57.26074219 C-125.78921875 57.26074219 -125.12921875 57.26074219 -124.44921875 57.26074219 C-124.44921875 56.60074219 -124.44921875 55.94074219 -124.44921875 55.26074219 C-123.78921875 55.26074219 -123.12921875 55.26074219 -122.44921875 55.26074219 C-122.44921875 54.60074219 -122.44921875 53.94074219 -122.44921875 53.26074219 C-118.98187809 50.02411811 -115.19483583 47.16707247 -111.44921875 44.26074219 C-110.26392578 43.33648437 -110.26392578 43.33648437 -109.0546875 42.39355469 C-104.75494255 39.2145269 -100.44921837 36.74980339 -95.60351562 34.53540039 C-87.57230313 30.8413051 -82.40162782 26.82808045 -76.78125 19.99511719 C-65.89921045 7.23560683 -46.86245898 2.58027689 -30.7734375 1.13574219 C-29.86954285 1.05277893 -28.96564819 0.96981567 -28.03436279 0.88433838 C-18.69150055 0.09415205 -9.37173929 -0.04259881 0 0 Z M-38.44921875 58.26074219 C-38.47775245 65.60969681 -38.47775245 65.60969681 -37.94921875 72.82324219 C-37.78421875 74.28761719 -37.61921875 75.75199219 -37.44921875 77.26074219 C-31.17921875 77.26074219 -24.90921875 77.26074219 -18.44921875 77.26074219 C-18.59359375 74.86824219 -18.73796875 72.47574219 -18.88671875 70.01074219 C-18.92982178 69.26405273 -18.9729248 68.51736328 -19.01733398 67.74804688 C-19.22885044 64.4228114 -19.63688264 61.51008662 -20.44921875 58.26074219 C-26.38921875 58.26074219 -32.32921875 58.26074219 -38.44921875 58.26074219 Z " fill="#000000" transform="translate(250.44921875,49.7392578125)"/>
<path d="M0 0 C1.31625194 2.63250388 0.74813658 3.80179056 0.0625 6.625 C-0.13214844 7.44226563 -0.32679688 8.25953125 -0.52734375 9.1015625 C-0.76130859 10.04128906 -0.76130859 10.04128906 -1 11 C-5.38859376 10.15412592 -9.60696075 9.30393499 -13.6875 7.4375 C-21.60832016 4.00016295 -29.9797283 4.05377774 -38 7 C-39.62737617 10.25475234 -39.67022624 13.49315968 -39 17 C-33.7378123 23.28539086 -25.14707919 25.49680463 -17.6484375 28.21484375 C-8.07778187 31.7225899 -0.01864009 35.53628737 6 44 C8.00003269 50.00009806 8.10549572 56.74806428 5.3125 62.4375 C4.549375 63.283125 3.78625 64.12875 3 65 C2.236875 65.9075 1.47375 66.815 0.6875 67.75 C-4.91365861 72.43934209 -11.61774362 72.38838029 -18.625 72.375 C-19.50365723 72.37338867 -20.38231445 72.37177734 -21.28759766 72.37011719 C-32.02672158 72.16945944 -42.19126626 69.80873374 -50 62 C-50.23046875 60.125 -50.23046875 60.125 -50.1875 58 C-50.18105469 57.29875 -50.17460937 56.5975 -50.16796875 55.875 C-50 54 -50 54 -49 52 C-44.87647599 51.4845595 -42.60268113 52.03649289 -39.25 54.3125 C-31.59332466 59.42663609 -23.12616071 61.08512277 -14 60 C-11.43108788 59.22397446 -9.38199474 58.2703972 -7 57 C-7.33 53.37 -7.66 49.74 -8 46 C-9.65 45.34 -11.3 44.68 -13 44 C-14.72991783 43.27261723 -16.45902267 42.54329922 -18.1875 41.8125 C-21.97021202 40.22225539 -25.76783144 38.69878591 -29.609375 37.2578125 C-30.40706299 36.95641357 -31.20475098 36.65501465 -32.02661133 36.34448242 C-33.60428396 35.75095798 -35.18478011 35.1648723 -36.76831055 34.5871582 C-41.88802926 32.65428906 -46.27038912 30.70633231 -49.328125 25.921875 C-52.79674583 17.75003949 -54.25937603 10.54972004 -51 2 C-39.62362106 -13.51324401 -14.22974963 -8.16893034 0 0 Z " fill="#000000" transform="translate(275,234)"/>
</svg>
