<?xml version="1.0" encoding="UTF-8"?>
<svg version="1.1" xmlns="http://www.w3.org/2000/svg" width="500" height="500">
<path d="M0 0 C1.22160828 -0.0033284 2.44321655 -0.0066568 3.70184326 -0.01008606 C6.27697373 -0.01512933 8.85211069 -0.01749519 11.42724609 -0.01733398 C15.33311932 -0.01951658 19.23870802 -0.03768988 23.14453125 -0.05664062 C25.65885321 -0.059576 28.1731765 -0.06155983 30.6875 -0.0625 C32.41471283 -0.07327827 32.41471283 -0.07327827 34.17681885 -0.08427429 C55.68337557 -0.02472553 75.77243297 5.70551687 91.6953125 20.66796875 C99.8246661 29.08671682 99.8246661 29.08671682 102.109375 34.16796875 C101.78125 37.203125 101.78125 37.203125 100.109375 40.16796875 C97.60642349 42.03898696 95.34102555 43.45950085 92.609375 44.91796875 C91.39725342 45.59255127 91.39725342 45.59255127 90.16064453 46.28076172 C87.15751185 47.93685713 84.13557783 49.55440337 81.109375 51.16796875 C79.79129914 51.8732939 78.47326762 52.57870192 77.15527344 53.28417969 C69.2762236 57.49599043 61.38130848 61.67729484 53.46759033 65.8236084 C49.74890939 67.77316577 46.0394443 69.73820123 42.34082031 71.72558594 C41.56102814 72.14315155 40.78123596 72.56071716 39.97781372 72.99093628 C38.47377273 73.79705272 36.97147775 74.60643745 35.47116089 75.41946411 C30.33301297 78.16796875 30.33301297 78.16796875 28.109375 78.16796875 C28.16928906 80.12715843 28.25804638 82.08548404 28.359375 84.04296875 C28.40578125 85.13351563 28.4521875 86.2240625 28.5 87.34765625 C28.78199092 90.24711749 28.78199092 90.24711749 30.87109375 91.328125 C31.60972656 91.60527344 32.34835937 91.88242188 33.109375 92.16796875 C34.65795437 93.31905181 36.17652659 94.51103306 37.671875 95.73046875 C38.54585937 96.44074219 39.41984375 97.15101563 40.3203125 97.8828125 C41.24070312 98.63691406 42.16109375 99.39101562 43.109375 100.16796875 C44.05039062 100.93238281 44.99140625 101.69679688 45.9609375 102.484375 C47.83117357 104.0068399 49.69339071 105.5392162 51.546875 107.08203125 C53.11173198 108.355863 54.71012276 109.59141249 56.359375 110.75390625 C60.88065973 114.05371486 60.88065973 114.05371486 61.56640625 117.39453125 C61.63413693 121.17513465 61.05854754 124.52370047 60.109375 128.16796875 C59.74648844 129.91618137 59.39260265 131.66628201 59.046875 133.41796875 C58.734375 135.00130208 58.421875 136.58463542 58.109375 138.16796875 C48.6084053 139.69683955 39.29420615 140.61630046 29.671875 140.91796875 C28.37580322 140.95889648 27.07973145 140.99982422 25.74438477 141.04199219 C9.71959819 141.42426192 -6.42517012 140.69014606 -21.890625 136.16796875 C-23.75847656 135.64396484 -23.75847656 135.64396484 -25.6640625 135.109375 C-32.78680549 133.04366665 -39.69384775 130.57855139 -46.515625 127.66796875 C-47.16635986 127.3956543 -47.81709473 127.12333984 -48.48754883 126.84277344 C-52.99428567 124.8501858 -56.34514489 122.52799298 -59.890625 119.16796875 C-59.890625 118.50796875 -59.890625 117.84796875 -59.890625 117.16796875 C-60.550625 117.16796875 -61.210625 117.16796875 -61.890625 117.16796875 C-63.51171875 115.48828125 -63.51171875 115.48828125 -65.328125 113.29296875 C-67.47463384 110.70603153 -69.05839062 109.05612501 -71.890625 107.16796875 C-74.860625 110.79796875 -77.830625 114.42796875 -80.890625 118.16796875 C-77.74534997 121.92695598 -74.66173862 125.39314979 -71.015625 128.66796875 C-68.64950855 131.06049275 -67.93285942 132.0141148 -67.015625 135.35546875 C-68.14124282 140.2599464 -70.45517692 143.86885677 -73.08203125 148.12890625 C-75.57667081 152.3207628 -77.2940699 156.57182528 -78.890625 161.16796875 C-79.41462891 162.59302734 -79.41462891 162.59302734 -79.94921875 164.046875 C-82.7144913 172.14010859 -83.73773841 180.0266539 -84.49609375 188.4921875 C-84.890625 192.16796875 -84.890625 192.16796875 -85.890625 194.16796875 C-92.98789928 194.27604907 -99.85157456 194.10650881 -106.890625 193.16796875 C-106.74625 194.06 -106.601875 194.95203125 -106.453125 195.87109375 C-106.2675 197.0415625 -106.081875 198.21203125 -105.890625 199.41796875 C-105.705 200.578125 -105.519375 201.73828125 -105.328125 202.93359375 C-104.890625 206.16796875 -104.890625 206.16796875 -104.890625 210.16796875 C-104.00540161 210.1819873 -104.00540161 210.1819873 -103.10229492 210.19628906 C-100.42672295 210.24999532 -97.75289947 210.33363727 -95.078125 210.41796875 C-94.14935547 210.43214844 -93.22058594 210.44632813 -92.26367188 210.4609375 C-90.9246582 210.50927734 -90.9246582 210.50927734 -89.55859375 210.55859375 C-88.73641357 210.57954102 -87.9142334 210.60048828 -87.06713867 210.62207031 C-84.890625 211.16796875 -84.890625 211.16796875 -83.17016602 212.99804688 C-81.41515723 215.97429533 -80.56307128 219.11605756 -79.640625 222.41796875 C-75.33191379 236.89863739 -69.2798365 250.04942651 -59.890625 261.98046875 C-57.890625 265.16796875 -57.890625 265.16796875 -58.078125 268.60546875 C-58.34625 269.45109375 -58.614375 270.29671875 -58.890625 271.16796875 C-59.550625 271.16796875 -60.210625 271.16796875 -60.890625 271.16796875 C-60.890625 271.82796875 -60.890625 272.48796875 -60.890625 273.16796875 C-61.550625 273.16796875 -62.210625 273.16796875 -62.890625 273.16796875 C-63.138125 273.76609375 -63.385625 274.36421875 -63.640625 274.98046875 C-65.05432512 277.45444396 -66.54117883 278.6016713 -68.890625 280.16796875 C-67.38154051 284.00927473 -65.0876763 285.65599987 -61.890625 288.16796875 C-60.51694155 289.80153826 -59.17124985 291.46046895 -57.890625 293.16796875 C-57.271875 292.50796875 -56.653125 291.84796875 -56.015625 291.16796875 C-53.890625 289.16796875 -53.890625 289.16796875 -51.890625 289.16796875 C-51.6225 288.52859375 -51.354375 287.88921875 -51.078125 287.23046875 C-49.890625 285.16796875 -49.890625 285.16796875 -46.890625 284.16796875 C-46.890625 283.50796875 -46.890625 282.84796875 -46.890625 282.16796875 C-41.09001302 281.70449913 -38.51331611 282.62048763 -33.953125 286.16796875 C-21.75895313 295.1975011 -7.74789743 301.27119906 6.88671875 305.17578125 C10.109375 306.16796875 10.109375 306.16796875 12.109375 308.16796875 C12.42822266 310.23095703 12.42822266 310.23095703 12.5234375 312.73828125 C12.58144531 314.08212891 12.58144531 314.08212891 12.640625 315.453125 C12.68703125 316.85884766 12.68703125 316.85884766 12.734375 318.29296875 C12.77304688 319.23785156 12.81171875 320.18273437 12.8515625 321.15625 C12.9459832 323.49316225 13.02877398 325.83053905 13.109375 328.16796875 C18.389375 328.49796875 23.669375 328.82796875 29.109375 329.16796875 C29.02558594 327.73582031 28.94179688 326.30367188 28.85546875 324.828125 C28.75233019 322.96225471 28.64948048 321.09636843 28.546875 319.23046875 C28.49080078 318.28494141 28.43472656 317.33941406 28.37695312 316.36523438 C28.30444336 315.01655273 28.30444336 315.01655273 28.23046875 313.640625 C28.1833374 312.80797119 28.13620605 311.97531738 28.08764648 311.11743164 C28.109375 309.16796875 28.109375 309.16796875 29.109375 308.16796875 C30.77874197 307.95345722 32.44927668 307.74570659 34.12353516 307.57348633 C49.48062419 305.98733314 64.60361972 302.33101531 77.13671875 292.88671875 C80.109375 291.16796875 80.109375 291.16796875 83.16015625 291.08203125 C86.99018858 292.49229481 88.67100639 294.44077979 91.296875 297.54296875 C92.13605469 298.52007812 92.97523438 299.4971875 93.83984375 300.50390625 C94.58878906 301.38304687 95.33773438 302.2621875 96.109375 303.16796875 C97.09537596 304.18177451 98.0879833 305.18982817 99.109375 306.16796875 C100.38247812 305.2335534 101.652763 304.29529764 102.921875 303.35546875 C103.62957031 302.83339844 104.33726562 302.31132812 105.06640625 301.7734375 C106.89468893 300.33667998 108.50834188 298.84981112 110.109375 297.16796875 C108.26212672 292.24981727 104.03063172 289.15209813 100.18945312 285.765625 C98.56640625 284.23828125 98.56640625 284.23828125 96.109375 281.16796875 C96.02284944 276.62826092 97.67045447 273.86939632 100.234375 270.23046875 C108.43359862 257.86415 113.71994877 244.5886655 115.6796875 229.890625 C116.109375 227.16796875 116.109375 227.16796875 117.109375 225.16796875 C119.25513363 225.14049816 121.40099941 225.12136412 123.546875 225.10546875 C124.74183594 225.09386719 125.93679688 225.08226562 127.16796875 225.0703125 C131.49593148 225.17754646 135.80656309 225.68987854 140.109375 226.16796875 C140.109375 219.89796875 140.109375 213.62796875 140.109375 207.16796875 C138.63984375 207.13058594 137.1703125 207.09320313 135.65625 207.0546875 C133.72393287 206.98902624 131.79164235 206.92257895 129.859375 206.85546875 C128.40724609 206.82163086 128.40724609 206.82163086 126.92578125 206.78710938 C125.99121094 206.75166016 125.05664062 206.71621094 124.09375 206.6796875 C123.23491211 206.65350342 122.37607422 206.62731934 121.49121094 206.6003418 C118.64205596 206.08313664 117.22611529 205.11436569 115.109375 203.16796875 C114.45703125 201.21484375 114.45703125 201.21484375 114.171875 198.91796875 C112.12699496 187.1387837 107.73429323 176.9306785 102.296875 166.35546875 C101.8117041 165.4013208 101.3265332 164.44717285 100.82666016 163.46411133 C96.15295193 154.61322841 90.37091813 147.17630651 83.109375 140.29296875 C79.80741477 136.64433111 78.50718774 134.36610755 78.421875 129.41796875 C78.62930751 125.97988517 79.15541654 123.00284788 80.08203125 119.6796875 C81.04680288 115.85818947 81.62765655 113.08888133 81.109375 109.16796875 C77.62791646 104.32719773 72.06222391 101.30847712 67.109375 98.16796875 C65.32058031 96.92254449 63.54603065 95.65597733 61.796875 94.35546875 C60.75080078 93.63423828 60.75080078 93.63423828 59.68359375 92.8984375 C57.50271024 90.50108912 57.41359423 88.32920339 57.109375 85.16796875 C66.48743945 79.87109902 75.88508938 74.68909141 85.54980469 69.93212891 C89.36827574 68.04971656 93.13145085 66.10159353 96.859375 64.04296875 C97.71402344 63.57503906 98.56867188 63.10710937 99.44921875 62.625 C101.38235791 61.56617341 103.31153456 60.50010233 105.23828125 59.4296875 C106.81416016 58.58857422 106.81416016 58.58857422 108.421875 57.73046875 C109.36675781 57.21613281 110.31164062 56.70179687 111.28515625 56.171875 C114.78772495 54.92684021 116.56596264 55.08448439 120.109375 56.16796875 C126.78133036 60.53152496 132.45771971 66.35891739 137.99609375 72.0546875 C139.96077385 74.0193676 141.98535231 75.81659757 144.109375 77.60546875 C175.27815834 104.51554704 198.77469424 152.48144306 202.796875 193.10546875 C202.84199219 193.85699219 202.88710938 194.60851562 202.93359375 195.3828125 C203.01219414 197.27145064 203.01219414 197.27145064 204.109375 199.16796875 C204.18021371 202.12548503 204.10632328 205.06979173 204.046875 208.02734375 C204.01995275 211.11041406 204.01995275 211.11041406 204.625 213.859375 C208.23289757 238.50364305 201.41054651 267.79730474 191.109375 290.16796875 C190.51655722 291.5076489 189.9241367 292.84750487 189.33203125 294.1875 C181.64640658 311.31191732 171.68136145 326.09755571 158.109375 339.16796875 C156.9028125 340.40546875 156.9028125 340.40546875 155.671875 341.66796875 C154.82625 342.49296875 153.980625 343.31796875 153.109375 344.16796875 C152.55765625 344.71582031 152.0059375 345.26367188 151.4375 345.828125 C119.50932701 375.96188516 75.52499779 385.36232019 32.96679688 384.27734375 C10.00421329 383.39839318 -12.0774214 376.93959115 -33.203125 368.23046875 C-34.19328613 367.8236084 -35.18344727 367.41674805 -36.20361328 366.99755859 C-65.90357087 354.48996504 -97.13236368 330.72550716 -115.890625 304.16796875 C-116.82406901 302.86577807 -117.75767921 301.5637065 -118.69140625 300.26171875 C-121.31703876 296.58533604 -123.90770635 292.88573477 -126.48632812 289.17626953 C-127.68396481 287.46351582 -128.90237327 285.76531775 -130.125 284.0703125 C-136.25435121 275.35437508 -140.55788142 265.86123309 -144.890625 256.16796875 C-145.39851563 255.04777344 -145.90640625 253.92757812 -146.4296875 252.7734375 C-150.85585056 242.6312786 -153.789245 232.10670986 -155.49609375 221.1796875 C-155.69438638 219.17827217 -155.69438638 219.17827217 -156.890625 218.16796875 C-159.22090236 206.90918305 -160.57007066 195.66251307 -160.890625 184.16796875 C-160.91253906 183.42434082 -160.93445313 182.68071289 -160.95703125 181.91455078 C-162.11253437 135.83886392 -147.62647245 94.45427013 -115.921875 60.9140625 C-104.09278382 48.68854457 -91.10504794 37.4290739 -75.015625 31.23046875 C-70.78070605 29.4501361 -69.05846772 27.04134675 -66.51953125 23.3125 C-56.0853826 9.57545538 -36.51602004 3.36001386 -20.05636597 0.89305115 C-13.37525227 0.04025936 -6.72749872 0.00645628 0 0 Z M-24.890625 57.16796875 C-24.91125 58.81796875 -24.931875 60.46796875 -24.953125 62.16796875 C-24.96472656 63.09609375 -24.97632813 64.02421875 -24.98828125 64.98046875 C-24.87353506 68.72578442 -24.35539221 72.4498311 -23.890625 76.16796875 C-17.620625 76.16796875 -11.350625 76.16796875 -4.890625 76.16796875 C-5.035 73.58984375 -5.179375 71.01171875 -5.328125 68.35546875 C-5.37122803 67.54746826 -5.41433105 66.73946777 -5.45874023 65.90698242 C-5.64347218 62.79387818 -5.90012806 60.13945958 -6.890625 57.16796875 C-12.830625 57.16796875 -18.770625 57.16796875 -24.890625 57.16796875 Z " fill="#FFFFFF" transform="translate(236.890625,50.83203125)"/>
<path d="M0 0 C0.7734375 0.02707031 1.546875 0.05414063 2.34375 0.08203125 C10.9428509 0.52929992 17.70018519 3.84027447 25.25 7.75 C24.76421457 10.87290635 24.2513988 13.74580359 23.25 16.75 C20.05205778 16.37814625 17.695045 16.0266496 14.9375 14.3125 C7.05727188 9.73097203 -2.52825427 10.10873298 -11.3125 11.1875 C-14.19532266 13.03546324 -14.41540529 13.84791063 -15.3125 17.0625 C-15.76805685 20.05958451 -15.80591625 21.57426322 -14.875 24.5 C-9.64560634 30.03700505 -3.0309938 32.60695889 4.125 34.75 C15.48742095 38.39354269 23.55423317 41.32753726 30.25 51.75 C32.21624161 55.68248322 31.57860277 60.45382306 31.25 64.75 C29.51675422 69.94973734 26.69573242 72.61183594 22.25 75.75 C12.16398842 80.05961514 -1.34282989 79.03887476 -11.5625 75.625 C-21.98828221 71.23779141 -21.98828221 71.23779141 -24.75 66.75 C-24.6875 62.875 -24.6875 62.875 -23.75 59.75 C-22.00390625 59.078125 -22.00390625 59.078125 -19.75 58.75 C-17.77734375 59.859375 -17.77734375 59.859375 -15.6875 61.5 C-7.69387389 67.12562885 1.57375375 68.90336062 11.25 67.75 C14.15889393 66.90200089 17.0595654 65.9404346 19.25 63.75 C19.7174786 58.14328889 19.7174786 58.14328889 17.8125 53 C12.61522642 48.43654027 5.61953823 46.45917373 -0.84155273 44.21484375 C-19.61220721 37.66937478 -19.61220721 37.66937478 -24.25 30.1875 C-26.8688974 24.18586012 -27.85668676 18.06528219 -26.20703125 11.6328125 C-23.96563195 6.05562176 -20.55204381 4.07256543 -15.1875 1.66015625 C-9.91923675 -0.30699974 -5.55596269 -0.29958622 0 0 Z " fill="#FFFFFF" transform="translate(249.75,227.25)"/>
</svg>
